# File created by Blade
# Date/Time:  Thu Jan 22 16:04:59 2015
# Frame Rate: 120.000 fps
#------------------------------------------------------
:FULLY-SPECIFIED
:DEGREES
2481
root 3.661289 36.857073 5.305670 -6.284642 -7.668680 1.838918
RightUpLeg 12.855167 -3.174127 -9.931736
RightLeg -5.509290 -0.000000 0.000000
RightFoot -8.412124 -9.127272 19.715153
RightToeBase 11.631390 -0.000000 -0.000000
LeftUpLeg 13.107595 1.825387 6.979946
LeftLeg -2.811908 -0.000000 0.000000
LeftFoot -6.581632 6.203590 -22.076786
LeftToeBase 6.506131 -0.000000 -0.000000
Spine -2.935578 -1.823345 -3.110370
RightShoulder 16.042562 -1.322074 -27.822369
RightArm 65.633278 -3.573420 50.588212
RightForeArm 8.912782 -0.000000 24.597423
RightHand -0.300121 -0.000000 -5.978636
RightHandThumb1 -24.326973 -0.000000 -32.862282
LeftShoulder -2.787318 15.034994 31.100698
LeftArm 88.977863 -13.963648 -55.151839
LeftForeArm 40.300600 -0.000000 9.280367
LeftHand -14.248461 -0.000000 -9.612628
LeftHandThumb1 -26.253704 0.000000 33.147579
Head 4.103627 15.164583 3.235188
2482
root 3.659076 36.858928 5.304891 -6.196495 -7.702881 1.827110
RightUpLeg 12.765562 -3.165240 -9.908277
RightLeg -5.522499 -0.000000 0.000000
RightFoot -8.379589 -9.134400 19.699029
RightToeBase 11.605194 -0.000000 -0.000000
LeftUpLeg 13.027776 1.867646 6.994705
LeftLeg -2.811830 -0.000000 0.000000
LeftFoot -6.572556 6.208372 -22.091736
LeftToeBase 6.483378 -0.000000 -0.000000
Spine -2.965515 -1.824858 -3.104999
RightShoulder 15.607664 -1.940663 -27.999064
RightArm 65.258747 -2.810244 50.425197
RightForeArm 9.147550 -0.000000 24.559494
RightHand -0.246862 -0.000000 -6.107009
RightHandThumb1 -24.326973 -0.000000 -32.862282
LeftShoulder -3.251499 15.422894 30.919622
LeftArm 88.322769 -14.542880 -55.157731
LeftForeArm 40.073891 -0.000000 9.190426
LeftHand -14.361384 0.000000 -9.955761
LeftHandThumb1 -26.253704 0.000000 33.147579
Head 4.200594 15.214468 3.306594
2483
root 3.657071 36.860987 5.305164 -6.105120 -7.740193 1.802993
RightUpLeg 12.674302 -3.155555 -9.873193
RightLeg -5.533387 -0.000000 0.000000
RightFoot -8.345002 -9.134159 19.722113
RightToeBase 11.604403 -0.000000 -0.000000
LeftUpLeg 12.948909 1.905136 7.020070
LeftLeg -2.812401 -0.000000 0.000000
LeftFoot -6.572735 6.221879 -22.089325
LeftToeBase 6.510197 -0.000000 -0.000000
Spine -2.982591 -1.695272 -3.111551
RightShoulder 15.054557 -2.136037 -28.095835
RightArm 64.435120 -2.361900 50.361348
RightForeArm 9.365915 0.000000 24.592409
RightHand -0.275123 0.000000 -6.398868
RightHandThumb1 -24.326973 -0.000000 -32.862282
LeftShoulder -3.621718 15.567283 30.830024
LeftArm 87.558747 -14.994783 -55.253859
LeftForeArm 40.021061 -0.000000 9.046544
LeftHand -14.370452 -0.000000 -10.093873
LeftHandThumb1 -26.253704 0.000000 33.147579
Head 4.262090 15.138232 3.404299
2484
root 3.654022 36.862252 5.305729 -6.034367 -7.763809 1.803731
RightUpLeg 12.600175 -3.177691 -9.868235
RightLeg -5.533774 -0.000000 0.000000
RightFoot -8.329632 -9.109196 19.726545
RightToeBase 11.593594 -0.000000 -0.000000
LeftUpLeg 12.884601 1.921571 7.021438
LeftLeg -2.812587 -0.000000 0.000000
LeftFoot -6.565151 6.237685 -22.093992
LeftToeBase 6.491711 -0.000000 -0.000000
Spine -2.980029 -1.779564 -3.134945
RightShoulder 14.681308 -2.605794 -28.269260
RightArm 63.919721 -1.658152 50.265296
RightForeArm 9.459788 0.000000 24.574985
RightHand -0.138117 -0.000000 -6.421009
RightHandThumb1 -24.326973 -0.000000 -32.862282
LeftShoulder -4.185966 16.191668 30.577573
LeftArm 87.082067 -15.721363 -55.201833
LeftForeArm 39.843691 0.000000 8.950055
LeftHand -14.329373 -0.000000 -9.904299
LeftHandThumb1 -26.253704 0.000000 33.147579
Head 4.350721 15.230114 3.472606
2485
root 3.651511 36.864133 5.307843 -5.958234 -7.781048 1.797830
RightUpLeg 12.533051 -3.169811 -9.853424
RightLeg -5.551087 -0.000000 0.000000
RightFoot -8.307956 -9.115375 19.735906
RightToeBase 11.585013 -0.000000 -0.000000
LeftUpLeg 12.813454 1.932682 7.028986
LeftLeg -2.804601 -0.000000 0.000000
LeftFoot -6.564878 6.237944 -22.141431
LeftToeBase 6.487103 -0.000000 -0.000000
Spine -2.980798 -1.801024 -3.148688
RightShoulder 14.234094 -2.808477 -28.432763
RightArm 63.131098 -1.202295 50.146265
RightForeArm 9.626290 0.000000 24.587683
RightHand -0.074953 -0.000000 -6.607423
RightHandThumb1 -24.326973 -0.000000 -32.862282
LeftShoulder -4.693849 16.668771 30.380167
LeftArm 86.478934 -16.363038 -55.177214
LeftForeArm 39.723963 -0.000000 8.843928
LeftHand -14.556095 -0.000000 -9.585022
LeftHandThumb1 -26.253704 0.000000 33.147579
Head 4.444914 15.283281 3.570171
2486
root 3.648836 36.865939 5.310351 -5.877988 -7.785316 1.788821
RightUpLeg 12.465185 -3.181803 -9.837809
RightLeg -5.563600 -0.000000 0.000000
RightFoot -8.293618 -9.109199 19.752096
RightToeBase 11.556429 -0.000000 -0.000000
LeftUpLeg 12.739444 1.931328 7.038351
LeftLeg -2.803312 -0.000000 0.000000
LeftFoot -6.560961 6.243326 -22.154006
LeftToeBase 6.488429 -0.000000 -0.000000
Spine -2.972975 -1.824178 -3.170378
RightShoulder 13.786322 -3.095625 -28.611861
RightArm 62.339559 -0.657086 50.064452
RightForeArm 9.838782 -0.000000 24.688753
RightHand -0.060431 -0.000000 -6.764517
RightHandThumb1 -24.326973 -0.000000 -32.862282
LeftShoulder -5.211318 17.013505 30.199128
LeftArm 85.771431 -16.930344 -55.152300
LeftForeArm 39.615988 0.000000 8.746008
LeftHand -14.611596 -0.000000 -9.406445
LeftHandThumb1 -26.253704 0.000000 33.147579
Head 4.492905 15.322980 3.671407
2487
root 3.646889 36.867451 5.313871 -5.809114 -7.793266 1.781137
RightUpLeg 12.408637 -3.188184 -9.825201
RightLeg -5.574302 -0.000000 0.000000
RightFoot -8.277056 -9.099127 19.777989
RightToeBase 11.573607 -0.000000 -0.000000
LeftUpLeg 12.675035 1.921315 7.042032
LeftLeg -2.794144 -0.000000 0.000000
LeftFoot -6.557429 6.266243 -22.147736
LeftToeBase 6.433235 -0.000000 -0.000000
Spine -2.949014 -1.814309 -3.183239
RightShoulder 13.313806 -3.403226 -28.805763
RightArm 61.556634 -0.131841 49.894979
RightForeArm 9.967211 -0.000000 24.698814
RightHand -0.035001 -0.000000 -6.764182
RightHandThumb1 -24.326973 -0.000000 -32.862282
LeftShoulder -5.688068 17.311819 30.034421
LeftArm 84.975275 -17.500115 -55.097092
LeftForeArm 39.640505 -0.000000 8.663761
LeftHand -14.656179 -0.000000 -9.305047
LeftHandThumb1 -26.253704 0.000000 33.147579
Head 4.586168 15.333431 3.760855
2488
root 3.645101 36.869622 5.318136 -5.738156 -7.790238 1.778279
RightUpLeg 12.351017 -3.169674 -9.809717
RightLeg -5.584000 -0.000000 0.000000
RightFoot -8.263923 -9.131409 19.777972
RightToeBase 11.551603 -0.000000 -0.000000
LeftUpLeg 12.604145 1.910816 7.040705
LeftLeg -2.781829 -0.000000 0.000000
LeftFoot -6.549900 6.279550 -22.134619
LeftToeBase 6.417709 -0.000000 -0.000000
Spine -2.924318 -1.782197 -3.213083
RightShoulder 12.804861 -3.652841 -28.954527
RightArm 60.662922 0.342891 49.717853
RightForeArm 10.161622 -0.000000 24.770223
RightHand -0.016316 -0.000000 -6.876707
RightHandThumb1 -24.326973 -0.000000 -32.862282
LeftShoulder -6.151371 17.464635 29.859843
LeftArm 84.058942 -17.998594 -54.908056
LeftForeArm 39.597010 -0.000000 8.549554
LeftHand -14.716593 0.000000 -9.207925
LeftHandThumb1 -26.253704 0.000000 33.147579
Head 4.637008 15.296058 3.854527
2489
root 3.643744 36.870451 5.323990 -5.685633 -7.785203 1.779017
RightUpLeg 12.310443 -3.177039 -9.807712
RightLeg -5.585334 -0.000000 0.000000
RightFoot -8.273045 -9.133945 19.811872
RightToeBase 11.575663 -0.000000 -0.000000
LeftUpLeg 12.555695 1.891306 7.033042
LeftLeg -2.772482 -0.000000 0.000000
LeftFoot -6.572842 6.302873 -22.185298
LeftToeBase 6.434217 -0.000000 -0.000000
Spine -2.881807 -1.769489 -3.214718
RightShoulder 12.351630 -3.896044 -29.235457
RightArm 59.720097 0.832249 49.705859
RightForeArm 10.094223 -0.000000 24.829662
RightHand 0.018450 -0.000000 -6.802725
RightHandThumb1 -24.326973 -0.000000 -32.862282
LeftShoulder -6.554858 18.443623 29.630124
LeftArm 83.694699 -19.037840 -55.061748
LeftForeArm 39.627651 -0.000000 8.571772
LeftHand -14.759657 -0.000000 -9.192169
LeftHandThumb1 -26.253704 0.000000 33.147579
Head 4.756563 15.249268 3.867964
